<mxfile host="app.diagrams.net" modified="2022-01-06T20:40:33.468Z" agent="5.0 (Windows NT 10.0; Win64; x64) AppleWebKit/537.36 (KHTML, like Gecko) Chrome/96.0.4664.110 Safari/537.36" etag="381lXi4pMYKeJ3T29sXu" version="16.1.0" type="github" pages="5">
  <diagram id="N_k3zZRlz12YxnI6ztA1" name="Inscription/Connexion">
    <mxGraphModel dx="1422" dy="772" grid="0" gridSize="10" guides="1" tooltips="1" connect="1" arrows="1" fold="1" page="1" pageScale="1" pageWidth="1100" pageHeight="850" math="0" shadow="0">
      <root>
        <mxCell id="0" />
        <mxCell id="1" parent="0" />
        <mxCell id="hQIpClACPcJuGZhebZav-84" value="&lt;span&gt;&lt;font style=&quot;font-size: 20px&quot;&gt;Inscription/Connexion&lt;/font&gt;&lt;/span&gt;" style="rounded=0;whiteSpace=wrap;html=1;fontSize=18;strokeWidth=1;fillColor=#e1d5e7;strokeColor=#9673a6;opacity=20;verticalAlign=top;" vertex="1" parent="1">
          <mxGeometry x="520" y="258" width="256" height="387" as="geometry" />
        </mxCell>
        <mxCell id="hQIpClACPcJuGZhebZav-17" value="&lt;h1&gt;&lt;font style=&quot;font-size: 36px&quot;&gt;Connexion&lt;/font&gt;&lt;/h1&gt;" style="text;html=1;strokeColor=none;fillColor=none;align=center;verticalAlign=middle;whiteSpace=wrap;rounded=0;" vertex="1" parent="1">
          <mxGeometry x="496" y="141" width="108" height="30" as="geometry" />
        </mxCell>
        <mxCell id="hQIpClACPcJuGZhebZav-18" value="&lt;font style=&quot;font-size: 16px&quot;&gt;Utilisateur&lt;br&gt;(élève &amp;amp; bénévole)&lt;/font&gt;" style="shape=umlActor;verticalLabelPosition=bottom;verticalAlign=top;html=1;outlineConnect=0;fontSize=14;" vertex="1" parent="1">
          <mxGeometry x="325" y="363.5" width="61" height="113" as="geometry" />
        </mxCell>
        <mxCell id="hQIpClACPcJuGZhebZav-19" value="&lt;font style=&quot;font-size: 16px&quot;&gt;Se connecte&lt;/font&gt;" style="rounded=1;whiteSpace=wrap;html=1;fontSize=14;fillColor=#ffe6cc;strokeColor=#d79b00;" vertex="1" parent="1">
          <mxGeometry x="588" y="306" width="120" height="60" as="geometry" />
        </mxCell>
        <mxCell id="hQIpClACPcJuGZhebZav-20" value="&lt;font style=&quot;font-size: 16px&quot;&gt;Crée un compte&lt;/font&gt;" style="rounded=1;whiteSpace=wrap;html=1;fontSize=14;fillColor=#ffe6cc;strokeColor=#d79b00;" vertex="1" parent="1">
          <mxGeometry x="588" y="386.5" width="120" height="60" as="geometry" />
        </mxCell>
        <mxCell id="hQIpClACPcJuGZhebZav-24" value="" style="endArrow=classic;html=1;rounded=0;fontSize=18;curved=1;entryX=0;entryY=0.5;entryDx=0;entryDy=0;exitX=0.5;exitY=0.5;exitDx=0;exitDy=0;exitPerimeter=0;" edge="1" parent="1" source="hQIpClACPcJuGZhebZav-18" target="hQIpClACPcJuGZhebZav-19">
          <mxGeometry width="50" height="50" relative="1" as="geometry">
            <mxPoint x="420" y="322" as="sourcePoint" />
            <mxPoint x="522" y="197" as="targetPoint" />
          </mxGeometry>
        </mxCell>
        <mxCell id="hQIpClACPcJuGZhebZav-25" value="" style="endArrow=classic;html=1;rounded=0;fontSize=18;entryX=0;entryY=0.5;entryDx=0;entryDy=0;curved=1;exitX=0.5;exitY=0.5;exitDx=0;exitDy=0;exitPerimeter=0;" edge="1" parent="1" source="hQIpClACPcJuGZhebZav-18" target="hQIpClACPcJuGZhebZav-20">
          <mxGeometry width="50" height="50" relative="1" as="geometry">
            <mxPoint x="414" y="424" as="sourcePoint" />
            <mxPoint x="516" y="423" as="targetPoint" />
          </mxGeometry>
        </mxCell>
        <mxCell id="hQIpClACPcJuGZhebZav-34" value="&lt;font style=&quot;font-size: 16px&quot;&gt;Demande la réinitialisation du mot de passe&lt;/font&gt;" style="rounded=1;whiteSpace=wrap;html=1;fontSize=14;fillColor=#ffe6cc;strokeColor=#d79b00;" vertex="1" parent="1">
          <mxGeometry x="559" y="468" width="178" height="65" as="geometry" />
        </mxCell>
        <mxCell id="hQIpClACPcJuGZhebZav-36" value="" style="endArrow=classic;html=1;rounded=0;fontSize=18;curved=1;entryX=0;entryY=0.5;entryDx=0;entryDy=0;exitX=0.5;exitY=0.5;exitDx=0;exitDy=0;exitPerimeter=0;" edge="1" parent="1" source="hQIpClACPcJuGZhebZav-18" target="hQIpClACPcJuGZhebZav-34">
          <mxGeometry width="50" height="50" relative="1" as="geometry">
            <mxPoint x="432" y="517" as="sourcePoint" />
            <mxPoint x="521" y="638" as="targetPoint" />
          </mxGeometry>
        </mxCell>
        <mxCell id="hQIpClACPcJuGZhebZav-86" value="&lt;font style=&quot;font-size: 16px&quot;&gt;Valide son compte&lt;/font&gt;" style="rounded=1;whiteSpace=wrap;html=1;fontSize=14;fillColor=#ffe6cc;strokeColor=#d79b00;" vertex="1" parent="1">
          <mxGeometry x="559" y="557" width="178" height="65" as="geometry" />
        </mxCell>
        <mxCell id="hQIpClACPcJuGZhebZav-87" value="" style="endArrow=classic;html=1;rounded=0;fontSize=18;curved=1;exitX=0.5;exitY=0.5;exitDx=0;exitDy=0;exitPerimeter=0;entryX=0;entryY=0.5;entryDx=0;entryDy=0;" edge="1" parent="1" source="hQIpClACPcJuGZhebZav-18" target="hQIpClACPcJuGZhebZav-86">
          <mxGeometry width="50" height="50" relative="1" as="geometry">
            <mxPoint x="365.5" y="430" as="sourcePoint" />
            <mxPoint x="567" y="512.5" as="targetPoint" />
          </mxGeometry>
        </mxCell>
      </root>
    </mxGraphModel>
  </diagram>
  <diagram id="tUUGEctex6ck9oFAPWpK" name="Tableau de bord">
    <mxGraphModel dx="1422" dy="772" grid="0" gridSize="10" guides="1" tooltips="1" connect="1" arrows="1" fold="1" page="1" pageScale="1" pageWidth="1100" pageHeight="850" math="0" shadow="0">
      <root>
        <mxCell id="vnXkW_ZIGlNbadKXdgFG-0" />
        <mxCell id="vnXkW_ZIGlNbadKXdgFG-1" parent="vnXkW_ZIGlNbadKXdgFG-0" />
        <mxCell id="25C8DqOvhzH8Vz4eQM_W-0" value="&lt;h1&gt;&lt;font style=&quot;font-size: 36px&quot;&gt;Tableau de Bord&lt;/font&gt;&lt;/h1&gt;" style="text;html=1;strokeColor=none;fillColor=none;align=center;verticalAlign=middle;whiteSpace=wrap;rounded=0;" vertex="1" parent="vnXkW_ZIGlNbadKXdgFG-1">
          <mxGeometry x="396" y="80" width="308" height="30" as="geometry" />
        </mxCell>
        <mxCell id="llBKfEtuTKUpMHoGcyUw-0" value="&lt;span&gt;&lt;font style=&quot;font-size: 20px&quot;&gt;Tableau de bord&lt;/font&gt;&lt;/span&gt;" style="rounded=0;whiteSpace=wrap;html=1;fontSize=18;strokeWidth=1;fillColor=#e1d5e7;strokeColor=#9673a6;opacity=20;verticalAlign=top;" vertex="1" parent="vnXkW_ZIGlNbadKXdgFG-1">
          <mxGeometry x="520" y="263" width="256" height="300" as="geometry" />
        </mxCell>
        <mxCell id="llBKfEtuTKUpMHoGcyUw-1" value="&lt;font style=&quot;font-size: 16px&quot;&gt;Utilisateur&lt;br&gt;(élève &amp;amp; bénévole)&lt;/font&gt;" style="shape=umlActor;verticalLabelPosition=bottom;verticalAlign=top;html=1;outlineConnect=0;fontSize=14;" vertex="1" parent="vnXkW_ZIGlNbadKXdgFG-1">
          <mxGeometry x="325" y="368.5" width="61" height="113" as="geometry" />
        </mxCell>
        <mxCell id="llBKfEtuTKUpMHoGcyUw-2" value="&lt;font style=&quot;font-size: 14px&quot;&gt;a une alerte du nombre de messages non lus&lt;/font&gt;" style="rounded=1;whiteSpace=wrap;html=1;fontSize=14;fillColor=#ffe6cc;strokeColor=#d79b00;" vertex="1" parent="vnXkW_ZIGlNbadKXdgFG-1">
          <mxGeometry x="559" y="311" width="176" height="60" as="geometry" />
        </mxCell>
        <mxCell id="llBKfEtuTKUpMHoGcyUw-3" value="&lt;font style=&quot;font-size: 15px&quot;&gt;voit ses différentes tâches à faire&lt;/font&gt;" style="rounded=1;whiteSpace=wrap;html=1;fontSize=14;fillColor=#ffe6cc;strokeColor=#d79b00;" vertex="1" parent="vnXkW_ZIGlNbadKXdgFG-1">
          <mxGeometry x="559" y="391.5" width="177" height="60" as="geometry" />
        </mxCell>
        <mxCell id="llBKfEtuTKUpMHoGcyUw-4" value="" style="endArrow=classic;html=1;rounded=0;fontSize=18;curved=1;entryX=0;entryY=0.5;entryDx=0;entryDy=0;exitX=0.5;exitY=0.5;exitDx=0;exitDy=0;exitPerimeter=0;" edge="1" parent="vnXkW_ZIGlNbadKXdgFG-1" source="llBKfEtuTKUpMHoGcyUw-1" target="llBKfEtuTKUpMHoGcyUw-2">
          <mxGeometry width="50" height="50" relative="1" as="geometry">
            <mxPoint x="420" y="327" as="sourcePoint" />
            <mxPoint x="522" y="202" as="targetPoint" />
          </mxGeometry>
        </mxCell>
        <mxCell id="llBKfEtuTKUpMHoGcyUw-5" value="" style="endArrow=classic;html=1;rounded=0;fontSize=18;entryX=0;entryY=0.5;entryDx=0;entryDy=0;curved=1;exitX=0.5;exitY=0.5;exitDx=0;exitDy=0;exitPerimeter=0;" edge="1" parent="vnXkW_ZIGlNbadKXdgFG-1" source="llBKfEtuTKUpMHoGcyUw-1" target="llBKfEtuTKUpMHoGcyUw-3">
          <mxGeometry width="50" height="50" relative="1" as="geometry">
            <mxPoint x="414" y="429" as="sourcePoint" />
            <mxPoint x="516" y="428" as="targetPoint" />
          </mxGeometry>
        </mxCell>
        <mxCell id="llBKfEtuTKUpMHoGcyUw-6" value="&lt;font style=&quot;font-size: 15px&quot;&gt;voit ses prochains événements prévus&lt;/font&gt;" style="rounded=1;whiteSpace=wrap;html=1;fontSize=14;fillColor=#ffe6cc;strokeColor=#d79b00;" vertex="1" parent="vnXkW_ZIGlNbadKXdgFG-1">
          <mxGeometry x="559" y="473" width="178" height="65" as="geometry" />
        </mxCell>
        <mxCell id="llBKfEtuTKUpMHoGcyUw-7" value="" style="endArrow=classic;html=1;rounded=0;fontSize=18;curved=1;entryX=0;entryY=0.5;entryDx=0;entryDy=0;exitX=0.5;exitY=0.5;exitDx=0;exitDy=0;exitPerimeter=0;" edge="1" parent="vnXkW_ZIGlNbadKXdgFG-1" source="llBKfEtuTKUpMHoGcyUw-1" target="llBKfEtuTKUpMHoGcyUw-6">
          <mxGeometry width="50" height="50" relative="1" as="geometry">
            <mxPoint x="432" y="522" as="sourcePoint" />
            <mxPoint x="521" y="643" as="targetPoint" />
          </mxGeometry>
        </mxCell>
      </root>
    </mxGraphModel>
  </diagram>
  <diagram id="Bnpzpmy2SDI23Quua8DK" name="Agenda">
    <mxGraphModel dx="1422" dy="772" grid="0" gridSize="10" guides="1" tooltips="1" connect="1" arrows="1" fold="1" page="1" pageScale="1" pageWidth="1100" pageHeight="850" math="0" shadow="0">
      <root>
        <mxCell id="08TveLE3wsxcT1mYKlpu-0" />
        <mxCell id="08TveLE3wsxcT1mYKlpu-1" parent="08TveLE3wsxcT1mYKlpu-0" />
        <mxCell id="zdbgEcDBYLGNNPQTCxTK-0" value="&lt;h1&gt;&lt;font style=&quot;font-size: 36px&quot;&gt;Agenda&lt;/font&gt;&lt;/h1&gt;" style="text;html=1;strokeColor=none;fillColor=none;align=center;verticalAlign=middle;whiteSpace=wrap;rounded=0;" vertex="1" parent="08TveLE3wsxcT1mYKlpu-1">
          <mxGeometry x="396" y="37" width="308" height="30" as="geometry" />
        </mxCell>
        <mxCell id="8bn4MULzIolXYwZXucTa-0" value="&lt;span&gt;&lt;font style=&quot;font-size: 20px&quot;&gt;Agenda&lt;/font&gt;&lt;/span&gt;" style="rounded=0;whiteSpace=wrap;html=1;fontSize=18;strokeWidth=1;fillColor=#e1d5e7;strokeColor=#9673a6;opacity=20;verticalAlign=top;" vertex="1" parent="08TveLE3wsxcT1mYKlpu-1">
          <mxGeometry x="520" y="231" width="256" height="299" as="geometry" />
        </mxCell>
        <mxCell id="8bn4MULzIolXYwZXucTa-1" value="&lt;font style=&quot;font-size: 16px&quot;&gt;Utilisateur&lt;br&gt;(élève &amp;amp; bénévole)&lt;/font&gt;" style="shape=umlActor;verticalLabelPosition=bottom;verticalAlign=top;html=1;outlineConnect=0;fontSize=14;" vertex="1" parent="08TveLE3wsxcT1mYKlpu-1">
          <mxGeometry x="325" y="336.5" width="61" height="113" as="geometry" />
        </mxCell>
        <mxCell id="8bn4MULzIolXYwZXucTa-2" value="&lt;font style=&quot;font-size: 15px&quot;&gt;voit tous ses événements&lt;/font&gt;" style="rounded=1;whiteSpace=wrap;html=1;fontSize=14;fillColor=#ffe6cc;strokeColor=#d79b00;" vertex="1" parent="08TveLE3wsxcT1mYKlpu-1">
          <mxGeometry x="559" y="279" width="174" height="60" as="geometry" />
        </mxCell>
        <mxCell id="8bn4MULzIolXYwZXucTa-3" value="&lt;font style=&quot;font-size: 15px&quot;&gt;remplit un formulaire pour créer un nouvel événement&lt;/font&gt;" style="rounded=1;whiteSpace=wrap;html=1;fontSize=14;fillColor=#ffe6cc;strokeColor=#d79b00;" vertex="1" parent="08TveLE3wsxcT1mYKlpu-1">
          <mxGeometry x="559" y="359.5" width="177" height="60" as="geometry" />
        </mxCell>
        <mxCell id="8bn4MULzIolXYwZXucTa-4" value="" style="endArrow=classic;html=1;rounded=0;fontSize=18;curved=1;entryX=0;entryY=0.5;entryDx=0;entryDy=0;exitX=0.5;exitY=0.5;exitDx=0;exitDy=0;exitPerimeter=0;" edge="1" parent="08TveLE3wsxcT1mYKlpu-1" source="8bn4MULzIolXYwZXucTa-1" target="8bn4MULzIolXYwZXucTa-2">
          <mxGeometry width="50" height="50" relative="1" as="geometry">
            <mxPoint x="420" y="295" as="sourcePoint" />
            <mxPoint x="522" y="170" as="targetPoint" />
          </mxGeometry>
        </mxCell>
        <mxCell id="8bn4MULzIolXYwZXucTa-5" value="" style="endArrow=classic;html=1;rounded=0;fontSize=18;entryX=0;entryY=0.5;entryDx=0;entryDy=0;curved=1;exitX=0.5;exitY=0.5;exitDx=0;exitDy=0;exitPerimeter=0;" edge="1" parent="08TveLE3wsxcT1mYKlpu-1" source="8bn4MULzIolXYwZXucTa-1" target="8bn4MULzIolXYwZXucTa-3">
          <mxGeometry width="50" height="50" relative="1" as="geometry">
            <mxPoint x="414" y="397" as="sourcePoint" />
            <mxPoint x="516" y="396" as="targetPoint" />
          </mxGeometry>
        </mxCell>
        <mxCell id="8bn4MULzIolXYwZXucTa-6" value="&lt;font style=&quot;font-size: 15px&quot;&gt;voit le calendrier mois par mois&lt;/font&gt;" style="rounded=1;whiteSpace=wrap;html=1;fontSize=14;fillColor=#ffe6cc;strokeColor=#d79b00;" vertex="1" parent="08TveLE3wsxcT1mYKlpu-1">
          <mxGeometry x="559" y="441" width="178" height="65" as="geometry" />
        </mxCell>
        <mxCell id="8bn4MULzIolXYwZXucTa-7" value="" style="endArrow=classic;html=1;rounded=0;fontSize=18;curved=1;entryX=0;entryY=0.5;entryDx=0;entryDy=0;exitX=0.5;exitY=0.5;exitDx=0;exitDy=0;exitPerimeter=0;" edge="1" parent="08TveLE3wsxcT1mYKlpu-1" source="8bn4MULzIolXYwZXucTa-1" target="8bn4MULzIolXYwZXucTa-6">
          <mxGeometry width="50" height="50" relative="1" as="geometry">
            <mxPoint x="432" y="490" as="sourcePoint" />
            <mxPoint x="521" y="611" as="targetPoint" />
          </mxGeometry>
        </mxCell>
      </root>
    </mxGraphModel>
  </diagram>
  <diagram id="22UiJg8ftt56wj7uKF9D" name="Tâches">
    <mxGraphModel dx="1422" dy="772" grid="0" gridSize="10" guides="1" tooltips="1" connect="1" arrows="1" fold="1" page="1" pageScale="1" pageWidth="1100" pageHeight="850" math="0" shadow="0">
      <root>
        <mxCell id="ECjhi9dBhwynrOFmbeBy-0" />
        <mxCell id="ECjhi9dBhwynrOFmbeBy-1" parent="ECjhi9dBhwynrOFmbeBy-0" />
        <mxCell id="R_Rl_1GO0xojypFAqdY3-0" value="&lt;h1&gt;&lt;font style=&quot;font-size: 36px&quot;&gt;Tâches&lt;/font&gt;&lt;/h1&gt;" style="text;html=1;strokeColor=none;fillColor=none;align=center;verticalAlign=middle;whiteSpace=wrap;rounded=0;" vertex="1" parent="ECjhi9dBhwynrOFmbeBy-1">
          <mxGeometry x="396" y="64" width="308" height="30" as="geometry" />
        </mxCell>
        <mxCell id="iLuypzrg3TyXIozPUnfI-17" value="&lt;span&gt;&lt;font style=&quot;font-size: 20px&quot;&gt;Tâches&lt;/font&gt;&lt;/span&gt;" style="rounded=0;whiteSpace=wrap;html=1;fontSize=18;strokeWidth=1;fillColor=#e1d5e7;strokeColor=#9673a6;opacity=20;verticalAlign=top;" vertex="1" parent="ECjhi9dBhwynrOFmbeBy-1">
          <mxGeometry x="520" y="228" width="256" height="288" as="geometry" />
        </mxCell>
        <mxCell id="iLuypzrg3TyXIozPUnfI-18" value="&lt;font style=&quot;font-size: 16px&quot;&gt;Utilisateur&lt;br&gt;(élève &amp;amp; bénévole)&lt;/font&gt;" style="shape=umlActor;verticalLabelPosition=bottom;verticalAlign=top;html=1;outlineConnect=0;fontSize=14;" vertex="1" parent="ECjhi9dBhwynrOFmbeBy-1">
          <mxGeometry x="325" y="333.5" width="61" height="113" as="geometry" />
        </mxCell>
        <mxCell id="iLuypzrg3TyXIozPUnfI-19" value="&lt;font style=&quot;font-size: 16px&quot;&gt;Voit ses différentes tâches&lt;/font&gt;" style="rounded=1;whiteSpace=wrap;html=1;fontSize=14;fillColor=#ffe6cc;strokeColor=#d79b00;" vertex="1" parent="ECjhi9dBhwynrOFmbeBy-1">
          <mxGeometry x="565" y="276" width="168" height="60" as="geometry" />
        </mxCell>
        <mxCell id="iLuypzrg3TyXIozPUnfI-21" value="" style="endArrow=classic;html=1;rounded=0;fontSize=18;curved=1;entryX=0;entryY=0.5;entryDx=0;entryDy=0;exitX=0.5;exitY=0.5;exitDx=0;exitDy=0;exitPerimeter=0;" edge="1" parent="ECjhi9dBhwynrOFmbeBy-1" source="iLuypzrg3TyXIozPUnfI-18" target="iLuypzrg3TyXIozPUnfI-19">
          <mxGeometry width="50" height="50" relative="1" as="geometry">
            <mxPoint x="420" y="292" as="sourcePoint" />
            <mxPoint x="522" y="167" as="targetPoint" />
          </mxGeometry>
        </mxCell>
        <mxCell id="iLuypzrg3TyXIozPUnfI-36" value="" style="endArrow=classic;html=1;rounded=0;fontSize=18;entryX=0;entryY=0.5;entryDx=0;entryDy=0;curved=1;exitX=0.5;exitY=0.5;exitDx=0;exitDy=0;exitPerimeter=0;" edge="1" parent="ECjhi9dBhwynrOFmbeBy-1" source="iLuypzrg3TyXIozPUnfI-18" target="zhBjS-ltnsuExuZ7499X-0">
          <mxGeometry width="50" height="50" relative="1" as="geometry">
            <mxPoint x="844" y="493" as="sourcePoint" />
            <mxPoint x="559" y="387.5" as="targetPoint" />
          </mxGeometry>
        </mxCell>
        <mxCell id="zhBjS-ltnsuExuZ7499X-0" value="&lt;font style=&quot;font-size: 15px&quot;&gt;remplit un formulaire pour créer une nouvelle tâche&lt;br&gt;&lt;/font&gt;" style="rounded=1;whiteSpace=wrap;html=1;fontSize=14;fillColor=#ffe6cc;strokeColor=#d79b00;" vertex="1" parent="ECjhi9dBhwynrOFmbeBy-1">
          <mxGeometry x="559.5" y="416.5" width="177" height="60" as="geometry" />
        </mxCell>
      </root>
    </mxGraphModel>
  </diagram>
  <diagram id="ax6sDiMAZLWv4JBPPOYj" name="Chat">
    <mxGraphModel dx="1422" dy="772" grid="0" gridSize="10" guides="1" tooltips="1" connect="1" arrows="1" fold="1" page="1" pageScale="1" pageWidth="1100" pageHeight="850" math="0" shadow="0">
      <root>
        <mxCell id="0rSqqRQdfSesQRWWmN9H-0" />
        <mxCell id="0rSqqRQdfSesQRWWmN9H-1" parent="0rSqqRQdfSesQRWWmN9H-0" />
        <mxCell id="3RUQjO-ppZEJjE_hFZOV-0" value="&lt;h1&gt;&lt;font style=&quot;font-size: 36px&quot;&gt;Chat&lt;/font&gt;&lt;/h1&gt;" style="text;html=1;strokeColor=none;fillColor=none;align=center;verticalAlign=middle;whiteSpace=wrap;rounded=0;" vertex="1" parent="0rSqqRQdfSesQRWWmN9H-1">
          <mxGeometry x="396" y="51" width="308" height="30" as="geometry" />
        </mxCell>
        <mxCell id="PRjVnsE5deUhHwla8H_z-0" value="&lt;span&gt;&lt;font style=&quot;font-size: 20px&quot;&gt;Chat&lt;/font&gt;&lt;/span&gt;" style="rounded=0;whiteSpace=wrap;html=1;fontSize=18;strokeWidth=1;fillColor=#e1d5e7;strokeColor=#9673a6;opacity=20;verticalAlign=top;" vertex="1" parent="0rSqqRQdfSesQRWWmN9H-1">
          <mxGeometry x="520" y="232" width="256" height="387" as="geometry" />
        </mxCell>
        <mxCell id="PRjVnsE5deUhHwla8H_z-1" value="&lt;font style=&quot;font-size: 16px&quot;&gt;Utilisateur&lt;br&gt;(élève &amp;amp; bénévole)&lt;/font&gt;" style="shape=umlActor;verticalLabelPosition=bottom;verticalAlign=top;html=1;outlineConnect=0;fontSize=14;" vertex="1" parent="0rSqqRQdfSesQRWWmN9H-1">
          <mxGeometry x="325" y="337.5" width="61" height="113" as="geometry" />
        </mxCell>
        <mxCell id="PRjVnsE5deUhHwla8H_z-2" value="&lt;span style=&quot;font-size: 16px&quot;&gt;voit sur ses différentes conversations&lt;/span&gt;" style="rounded=1;whiteSpace=wrap;html=1;fontSize=14;fillColor=#ffe6cc;strokeColor=#d79b00;" vertex="1" parent="0rSqqRQdfSesQRWWmN9H-1">
          <mxGeometry x="563" y="280" width="176" height="60" as="geometry" />
        </mxCell>
        <mxCell id="PRjVnsE5deUhHwla8H_z-3" value="&lt;span style=&quot;font-size: 16px&quot;&gt;voit sur le nombre de messages non lus&lt;/span&gt;" style="rounded=1;whiteSpace=wrap;html=1;fontSize=14;fillColor=#ffe6cc;strokeColor=#d79b00;" vertex="1" parent="0rSqqRQdfSesQRWWmN9H-1">
          <mxGeometry x="561" y="360.5" width="179" height="60" as="geometry" />
        </mxCell>
        <mxCell id="PRjVnsE5deUhHwla8H_z-4" value="" style="endArrow=classic;html=1;rounded=0;fontSize=18;curved=1;entryX=0;entryY=0.5;entryDx=0;entryDy=0;exitX=0.5;exitY=0.5;exitDx=0;exitDy=0;exitPerimeter=0;" edge="1" parent="0rSqqRQdfSesQRWWmN9H-1" source="PRjVnsE5deUhHwla8H_z-1" target="PRjVnsE5deUhHwla8H_z-2">
          <mxGeometry width="50" height="50" relative="1" as="geometry">
            <mxPoint x="420" y="296" as="sourcePoint" />
            <mxPoint x="522" y="171" as="targetPoint" />
          </mxGeometry>
        </mxCell>
        <mxCell id="PRjVnsE5deUhHwla8H_z-5" value="" style="endArrow=classic;html=1;rounded=0;fontSize=18;entryX=0;entryY=0.5;entryDx=0;entryDy=0;curved=1;exitX=0.5;exitY=0.5;exitDx=0;exitDy=0;exitPerimeter=0;" edge="1" parent="0rSqqRQdfSesQRWWmN9H-1" source="PRjVnsE5deUhHwla8H_z-1" target="PRjVnsE5deUhHwla8H_z-3">
          <mxGeometry width="50" height="50" relative="1" as="geometry">
            <mxPoint x="414" y="398" as="sourcePoint" />
            <mxPoint x="516" y="397" as="targetPoint" />
          </mxGeometry>
        </mxCell>
        <mxCell id="PRjVnsE5deUhHwla8H_z-6" value="&lt;font style=&quot;font-size: 16px&quot;&gt;envoie des messages&lt;/font&gt;" style="rounded=1;whiteSpace=wrap;html=1;fontSize=14;fillColor=#ffe6cc;strokeColor=#d79b00;" vertex="1" parent="0rSqqRQdfSesQRWWmN9H-1">
          <mxGeometry x="559" y="442" width="180" height="38" as="geometry" />
        </mxCell>
        <mxCell id="PRjVnsE5deUhHwla8H_z-7" value="" style="endArrow=classic;html=1;rounded=0;fontSize=18;curved=1;entryX=0;entryY=0.5;entryDx=0;entryDy=0;exitX=0.5;exitY=0.5;exitDx=0;exitDy=0;exitPerimeter=0;" edge="1" parent="0rSqqRQdfSesQRWWmN9H-1" source="PRjVnsE5deUhHwla8H_z-1" target="PRjVnsE5deUhHwla8H_z-6">
          <mxGeometry width="50" height="50" relative="1" as="geometry">
            <mxPoint x="432" y="491" as="sourcePoint" />
            <mxPoint x="521" y="612" as="targetPoint" />
          </mxGeometry>
        </mxCell>
        <mxCell id="PRjVnsE5deUhHwla8H_z-14" value="peut créer et supprimer des conversations" style="rounded=1;whiteSpace=wrap;html=1;fontSize=14;fillColor=#ffe6cc;strokeColor=#d79b00;" vertex="1" parent="0rSqqRQdfSesQRWWmN9H-1">
          <mxGeometry x="559" y="508" width="178" height="59" as="geometry" />
        </mxCell>
        <mxCell id="PRjVnsE5deUhHwla8H_z-15" value="" style="endArrow=classic;html=1;rounded=0;fontSize=18;curved=1;exitX=0.5;exitY=0.5;exitDx=0;exitDy=0;exitPerimeter=0;entryX=0;entryY=0.5;entryDx=0;entryDy=0;" edge="1" parent="0rSqqRQdfSesQRWWmN9H-1" source="PRjVnsE5deUhHwla8H_z-1" target="PRjVnsE5deUhHwla8H_z-14">
          <mxGeometry width="50" height="50" relative="1" as="geometry">
            <mxPoint x="365.5" y="404" as="sourcePoint" />
            <mxPoint x="567" y="486.5" as="targetPoint" />
          </mxGeometry>
        </mxCell>
      </root>
    </mxGraphModel>
  </diagram>
</mxfile>
